<mxfile host="65bd71144e">
    <diagram id="YZrbtLrNG9jE8FrUsM-E" name="Page-1">
        <mxGraphModel dx="981" dy="884" grid="1" gridSize="10" guides="1" tooltips="1" connect="1" arrows="1" fold="1" page="1" pageScale="1" pageWidth="850" pageHeight="1100" math="0" shadow="0">
            <root>
                <mxCell id="0"/>
                <mxCell id="1" parent="0"/>
                <mxCell id="118" value="" style="rounded=1;whiteSpace=wrap;html=1;strokeColor=default;fontSize=12;fontColor=default;" vertex="1" parent="1">
                    <mxGeometry x="33.5" y="50" width="176.5" height="290" as="geometry"/>
                </mxCell>
                <mxCell id="124" style="edgeStyle=none;html=1;entryX=1;entryY=0.5;entryDx=0;entryDy=0;fontSize=12;fontColor=default;exitX=0;exitY=0.5;exitDx=0;exitDy=0;" edge="1" parent="1" source="122" target="103">
                    <mxGeometry relative="1" as="geometry"/>
                </mxCell>
                <mxCell id="126" style="edgeStyle=none;html=1;fontSize=12;fontColor=default;" edge="1" parent="1" source="122">
                    <mxGeometry relative="1" as="geometry">
                        <mxPoint x="370" y="60" as="targetPoint"/>
                    </mxGeometry>
                </mxCell>
                <mxCell id="122" value="Page 2&amp;nbsp;" style="rounded=1;whiteSpace=wrap;html=1;strokeColor=default;fontSize=12;fontColor=default;" vertex="1" parent="1">
                    <mxGeometry x="260" y="40" width="70" height="40" as="geometry"/>
                </mxCell>
                <mxCell id="121" value="" style="rounded=1;whiteSpace=wrap;html=1;strokeColor=default;fontSize=12;fontColor=default;dashed=1;" vertex="1" parent="1">
                    <mxGeometry x="15" y="396" width="820" height="420" as="geometry"/>
                </mxCell>
                <mxCell id="100" value="" style="rounded=1;whiteSpace=wrap;html=1;strokeColor=default;fontColor=default;dashed=1;" vertex="1" parent="1">
                    <mxGeometry x="160" y="500" width="350" height="50" as="geometry"/>
                </mxCell>
                <mxCell id="99" value="" style="rounded=1;whiteSpace=wrap;html=1;dashed=1;strokeColor=default;fontColor=default;" vertex="1" parent="1">
                    <mxGeometry x="80" y="485" width="50" height="229" as="geometry"/>
                </mxCell>
                <mxCell id="94" value="" style="rounded=1;whiteSpace=wrap;html=1;strokeColor=default;fontColor=default;dashed=1;" vertex="1" parent="1">
                    <mxGeometry x="160" y="576" width="645" height="154" as="geometry"/>
                </mxCell>
                <mxCell id="32" value="" style="group" vertex="1" connectable="0" parent="1">
                    <mxGeometry x="175" y="485" width="320" height="55" as="geometry"/>
                </mxCell>
                <mxCell id="24" value="Infimum 记录：" style="text;html=1;align=right;verticalAlign=middle;resizable=0;points=[];autosize=1;strokeColor=none;fillColor=none;" vertex="1" parent="32">
                    <mxGeometry y="25" width="110" height="30" as="geometry"/>
                </mxCell>
                <mxCell id="31" value="" style="group" vertex="1" connectable="0" parent="32">
                    <mxGeometry x="110" y="30" width="210" height="20" as="geometry"/>
                </mxCell>
                <mxCell id="17" value="0" style="rounded=0;whiteSpace=wrap;html=1;strokeColor=#006600;" vertex="1" parent="31">
                    <mxGeometry width="30" height="20" as="geometry"/>
                </mxCell>
                <mxCell id="18" value="" style="rounded=0;whiteSpace=wrap;html=1;strokeColor=#006600;" vertex="1" parent="31">
                    <mxGeometry x="30" width="10" height="20" as="geometry"/>
                </mxCell>
                <mxCell id="19" value="" style="rounded=0;whiteSpace=wrap;html=1;fontStyle=1;strokeColor=#006600;" vertex="1" parent="31">
                    <mxGeometry x="40" width="10" height="20" as="geometry"/>
                </mxCell>
                <mxCell id="20" value="" style="rounded=0;whiteSpace=wrap;html=1;strokeColor=#006600;" vertex="1" parent="31">
                    <mxGeometry x="50" width="10" height="20" as="geometry"/>
                </mxCell>
                <mxCell id="21" value="2" style="rounded=0;whiteSpace=wrap;html=1;strokeColor=#006600;" vertex="1" parent="31">
                    <mxGeometry x="60" width="30" height="20" as="geometry"/>
                </mxCell>
                <mxCell id="23" value="'infimum'" style="rounded=0;whiteSpace=wrap;html=1;" vertex="1" parent="31">
                    <mxGeometry x="120" width="90" height="20" as="geometry"/>
                </mxCell>
                <mxCell id="22" value="next" style="rounded=0;whiteSpace=wrap;html=1;strokeColor=#006600;" vertex="1" parent="31">
                    <mxGeometry x="90" width="30" height="20" as="geometry"/>
                </mxCell>
                <mxCell id="101" value="分组" style="text;html=1;align=center;verticalAlign=middle;resizable=0;points=[];autosize=1;strokeColor=none;fillColor=none;fontColor=default;" vertex="1" parent="32">
                    <mxGeometry x="-20" y="12.5" width="50" height="30" as="geometry"/>
                </mxCell>
                <mxCell id="33" value="" style="group" vertex="1" connectable="0" parent="1">
                    <mxGeometry x="495" y="510" width="330" height="30" as="geometry"/>
                </mxCell>
                <mxCell id="13" value="3" style="rounded=0;whiteSpace=wrap;html=1;" vertex="1" parent="33">
                    <mxGeometry x="180" y="5" width="30" height="20" as="geometry"/>
                </mxCell>
                <mxCell id="14" value="next" style="rounded=0;whiteSpace=wrap;html=1;" vertex="1" parent="33">
                    <mxGeometry x="210" y="5" width="30" height="20" as="geometry"/>
                </mxCell>
                <mxCell id="15" value="'supremum'" style="rounded=0;whiteSpace=wrap;html=1;" vertex="1" parent="33">
                    <mxGeometry x="240" y="5" width="90" height="20" as="geometry"/>
                </mxCell>
                <mxCell id="16" value="Supremum 记录：" style="text;html=1;align=right;verticalAlign=middle;resizable=0;points=[];autosize=1;strokeColor=none;fillColor=none;" vertex="1" parent="33">
                    <mxGeometry width="120" height="30" as="geometry"/>
                </mxCell>
                <mxCell id="27" value="0" style="rounded=0;whiteSpace=wrap;html=1;" vertex="1" parent="33">
                    <mxGeometry x="120" y="5" width="30" height="20" as="geometry"/>
                </mxCell>
                <mxCell id="28" value="" style="rounded=0;whiteSpace=wrap;html=1;" vertex="1" parent="33">
                    <mxGeometry x="150" y="5" width="10" height="20" as="geometry"/>
                </mxCell>
                <mxCell id="29" value="" style="rounded=0;whiteSpace=wrap;html=1;fontStyle=1" vertex="1" parent="33">
                    <mxGeometry x="160" y="5" width="10" height="20" as="geometry"/>
                </mxCell>
                <mxCell id="30" value="" style="rounded=0;whiteSpace=wrap;html=1;" vertex="1" parent="33">
                    <mxGeometry x="170" y="5" width="10" height="20" as="geometry"/>
                </mxCell>
                <mxCell id="34" value="用户记录 1：" style="text;html=1;align=right;verticalAlign=middle;resizable=0;points=[];autosize=1;strokeColor=none;fillColor=none;" vertex="1" parent="1">
                    <mxGeometry x="175" y="591" width="90" height="30" as="geometry"/>
                </mxCell>
                <mxCell id="36" value="记录头信息" style="text;html=1;align=center;verticalAlign=middle;resizable=0;points=[];autosize=1;strokeColor=none;fillColor=none;fontColor=#006600;" vertex="1" parent="1">
                    <mxGeometry x="285" y="536" width="80" height="30" as="geometry"/>
                </mxCell>
                <mxCell id="43" value="" style="group" vertex="1" connectable="0" parent="1">
                    <mxGeometry x="265" y="596" width="290" height="20" as="geometry"/>
                </mxCell>
                <mxCell id="2" value="0" style="rounded=0;whiteSpace=wrap;html=1;" vertex="1" parent="43">
                    <mxGeometry width="30" height="20" as="geometry"/>
                </mxCell>
                <mxCell id="3" value="" style="rounded=0;whiteSpace=wrap;html=1;" vertex="1" parent="43">
                    <mxGeometry x="30" width="10" height="20" as="geometry"/>
                </mxCell>
                <mxCell id="4" value="" style="rounded=0;whiteSpace=wrap;html=1;fontStyle=1" vertex="1" parent="43">
                    <mxGeometry x="50" width="10" height="20" as="geometry"/>
                </mxCell>
                <mxCell id="5" value="" style="rounded=0;whiteSpace=wrap;html=1;" vertex="1" parent="43">
                    <mxGeometry x="40" width="10" height="20" as="geometry"/>
                </mxCell>
                <mxCell id="6" value="" style="rounded=0;whiteSpace=wrap;html=1;" vertex="1" parent="43">
                    <mxGeometry x="60" width="10" height="20" as="geometry"/>
                </mxCell>
                <mxCell id="7" value="next" style="rounded=0;whiteSpace=wrap;html=1;" vertex="1" parent="43">
                    <mxGeometry x="70" width="30" height="20" as="geometry"/>
                </mxCell>
                <mxCell id="8" value="列值列表" style="rounded=0;whiteSpace=wrap;html=1;" vertex="1" parent="43">
                    <mxGeometry x="100" width="190" height="20" as="geometry"/>
                </mxCell>
                <mxCell id="35" value="主键值" style="rounded=0;whiteSpace=wrap;html=1;" vertex="1" parent="43">
                    <mxGeometry x="100" y="2" width="40" height="16" as="geometry"/>
                </mxCell>
                <mxCell id="44" value="用户记录 2：" style="text;html=1;align=right;verticalAlign=middle;resizable=0;points=[];autosize=1;strokeColor=none;fillColor=none;" vertex="1" parent="1">
                    <mxGeometry x="175" y="636" width="90" height="30" as="geometry"/>
                </mxCell>
                <mxCell id="45" value="" style="group;strokeColor=#660000;" vertex="1" connectable="0" parent="1">
                    <mxGeometry x="265" y="641" width="290" height="20" as="geometry"/>
                </mxCell>
                <mxCell id="46" value="1" style="rounded=0;whiteSpace=wrap;html=1;strokeColor=#660000;" vertex="1" parent="45">
                    <mxGeometry width="30" height="20" as="geometry"/>
                </mxCell>
                <mxCell id="47" value="" style="rounded=0;whiteSpace=wrap;html=1;strokeColor=#660000;" vertex="1" parent="45">
                    <mxGeometry x="30" width="10" height="20" as="geometry"/>
                </mxCell>
                <mxCell id="48" value="" style="rounded=0;whiteSpace=wrap;html=1;fontStyle=1;strokeColor=#660000;" vertex="1" parent="45">
                    <mxGeometry x="50" width="10" height="20" as="geometry"/>
                </mxCell>
                <mxCell id="49" value="" style="rounded=0;whiteSpace=wrap;html=1;strokeColor=#660000;" vertex="1" parent="45">
                    <mxGeometry x="40" width="10" height="20" as="geometry"/>
                </mxCell>
                <mxCell id="50" value="" style="rounded=0;whiteSpace=wrap;html=1;strokeColor=#660000;" vertex="1" parent="45">
                    <mxGeometry x="60" width="10" height="20" as="geometry"/>
                </mxCell>
                <mxCell id="51" value="next" style="rounded=0;whiteSpace=wrap;html=1;strokeColor=#660000;" vertex="1" parent="45">
                    <mxGeometry x="70" width="30" height="20" as="geometry"/>
                </mxCell>
                <mxCell id="52" value="列值列表" style="rounded=0;whiteSpace=wrap;html=1;strokeColor=#660000;" vertex="1" parent="45">
                    <mxGeometry x="100" width="190" height="20" as="geometry"/>
                </mxCell>
                <mxCell id="53" value="主键值" style="rounded=0;whiteSpace=wrap;html=1;strokeColor=#660000;" vertex="1" parent="45">
                    <mxGeometry x="100" y="2" width="40" height="16" as="geometry"/>
                </mxCell>
                <mxCell id="54" value="用户记录 3：" style="text;html=1;align=right;verticalAlign=middle;resizable=0;points=[];autosize=1;strokeColor=none;fillColor=none;" vertex="1" parent="1">
                    <mxGeometry x="175" y="686" width="90" height="30" as="geometry"/>
                </mxCell>
                <mxCell id="55" value="" style="group" vertex="1" connectable="0" parent="1">
                    <mxGeometry x="265" y="691" width="290" height="20" as="geometry"/>
                </mxCell>
                <mxCell id="56" value="0" style="rounded=0;whiteSpace=wrap;html=1;" vertex="1" parent="55">
                    <mxGeometry width="30" height="20" as="geometry"/>
                </mxCell>
                <mxCell id="57" value="" style="rounded=0;whiteSpace=wrap;html=1;" vertex="1" parent="55">
                    <mxGeometry x="30" width="10" height="20" as="geometry"/>
                </mxCell>
                <mxCell id="58" value="" style="rounded=0;whiteSpace=wrap;html=1;fontStyle=1" vertex="1" parent="55">
                    <mxGeometry x="50" width="10" height="20" as="geometry"/>
                </mxCell>
                <mxCell id="59" value="" style="rounded=0;whiteSpace=wrap;html=1;" vertex="1" parent="55">
                    <mxGeometry x="40" width="10" height="20" as="geometry"/>
                </mxCell>
                <mxCell id="60" value="" style="rounded=0;whiteSpace=wrap;html=1;" vertex="1" parent="55">
                    <mxGeometry x="60" width="10" height="20" as="geometry"/>
                </mxCell>
                <mxCell id="61" value="next" style="rounded=0;whiteSpace=wrap;html=1;" vertex="1" parent="55">
                    <mxGeometry x="70" width="30" height="20" as="geometry"/>
                </mxCell>
                <mxCell id="62" value="列值列表" style="rounded=0;whiteSpace=wrap;html=1;" vertex="1" parent="55">
                    <mxGeometry x="100" width="190" height="20" as="geometry"/>
                </mxCell>
                <mxCell id="63" value="主键值" style="rounded=0;whiteSpace=wrap;html=1;" vertex="1" parent="55">
                    <mxGeometry x="100" y="2" width="40" height="16" as="geometry"/>
                </mxCell>
                <mxCell id="64" value="用户记录 n：" style="text;html=1;align=right;verticalAlign=middle;resizable=0;points=[];autosize=1;strokeColor=none;fillColor=none;" vertex="1" parent="1">
                    <mxGeometry x="175" y="756" width="90" height="30" as="geometry"/>
                </mxCell>
                <mxCell id="65" value="" style="group" vertex="1" connectable="0" parent="1">
                    <mxGeometry x="265" y="761" width="290" height="20" as="geometry"/>
                </mxCell>
                <mxCell id="66" value="0" style="rounded=0;whiteSpace=wrap;html=1;" vertex="1" parent="65">
                    <mxGeometry width="30" height="20" as="geometry"/>
                </mxCell>
                <mxCell id="67" value="" style="rounded=0;whiteSpace=wrap;html=1;" vertex="1" parent="65">
                    <mxGeometry x="30" width="10" height="20" as="geometry"/>
                </mxCell>
                <mxCell id="68" value="" style="rounded=0;whiteSpace=wrap;html=1;fontStyle=1" vertex="1" parent="65">
                    <mxGeometry x="50" width="10" height="20" as="geometry"/>
                </mxCell>
                <mxCell id="69" value="" style="rounded=0;whiteSpace=wrap;html=1;" vertex="1" parent="65">
                    <mxGeometry x="40" width="10" height="20" as="geometry"/>
                </mxCell>
                <mxCell id="70" value="" style="rounded=0;whiteSpace=wrap;html=1;" vertex="1" parent="65">
                    <mxGeometry x="60" width="10" height="20" as="geometry"/>
                </mxCell>
                <mxCell id="71" value="next" style="rounded=0;whiteSpace=wrap;html=1;" vertex="1" parent="65">
                    <mxGeometry x="70" width="30" height="20" as="geometry"/>
                </mxCell>
                <mxCell id="72" value="列值列表" style="rounded=0;whiteSpace=wrap;html=1;" vertex="1" parent="65">
                    <mxGeometry x="100" width="190" height="20" as="geometry"/>
                </mxCell>
                <mxCell id="73" value="主键值" style="rounded=0;whiteSpace=wrap;html=1;" vertex="1" parent="65">
                    <mxGeometry x="100" y="2" width="40" height="16" as="geometry"/>
                </mxCell>
                <mxCell id="74" style="edgeStyle=none;html=1;entryX=0;entryY=0;entryDx=0;entryDy=0;fontColor=#006600;" edge="1" parent="1" source="22" target="35">
                    <mxGeometry relative="1" as="geometry">
                        <Array as="points">
                            <mxPoint x="380" y="556"/>
                            <mxPoint x="365" y="566"/>
                        </Array>
                    </mxGeometry>
                </mxCell>
                <mxCell id="75" style="edgeStyle=none;html=1;entryX=1;entryY=0.25;entryDx=0;entryDy=0;fontColor=#006600;exitX=0.5;exitY=1;exitDx=0;exitDy=0;" edge="1" parent="1" source="7" target="61">
                    <mxGeometry relative="1" as="geometry">
                        <mxPoint x="315" y="616" as="sourcePoint"/>
                        <Array as="points">
                            <mxPoint x="350" y="626"/>
                            <mxPoint x="185" y="626"/>
                            <mxPoint x="185" y="676"/>
                            <mxPoint x="365" y="676"/>
                        </Array>
                    </mxGeometry>
                </mxCell>
                <mxCell id="79" value="&lt;span style=&quot;&quot;&gt;record_type 根据存储记录类型不同是固定的值，0 表示普通记录，1 表示目录项记录（B+树非叶子节点），2/3 分别是 infimum 和 supremum&lt;/span&gt;" style="shape=callout;whiteSpace=wrap;html=1;perimeter=calloutPerimeter;strokeColor=default;fontColor=default;dashed=1;align=left;base=14;position2=0.54;size=40;position=0.58;" vertex="1" parent="1">
                    <mxGeometry x="225" y="420" width="260" height="90" as="geometry"/>
                </mxCell>
                <mxCell id="85" style="edgeStyle=none;html=1;entryX=0;entryY=0.25;entryDx=0;entryDy=0;fontColor=default;exitX=0.5;exitY=1;exitDx=0;exitDy=0;" edge="1" parent="1" source="81" target="73">
                    <mxGeometry relative="1" as="geometry"/>
                </mxCell>
                <mxCell id="81" value="……" style="rounded=0;whiteSpace=wrap;html=1;strokeColor=default;fontColor=default;" vertex="1" parent="1">
                    <mxGeometry x="315" y="726" width="90" height="20" as="geometry"/>
                </mxCell>
                <mxCell id="84" value="" style="edgeStyle=none;html=1;fontColor=default;" edge="1" parent="1" source="61">
                    <mxGeometry relative="1" as="geometry">
                        <mxPoint x="365" y="726" as="targetPoint"/>
                    </mxGeometry>
                </mxCell>
                <mxCell id="86" style="edgeStyle=none;html=1;fontColor=default;" edge="1" parent="1" source="71">
                    <mxGeometry relative="1" as="geometry">
                        <mxPoint x="735" y="536" as="targetPoint"/>
                        <Array as="points">
                            <mxPoint x="355" y="796"/>
                            <mxPoint x="735" y="796"/>
                        </Array>
                    </mxGeometry>
                </mxCell>
                <mxCell id="87" value="infimum 记录代表最小（主键值）用户记录，为链表起点&lt;br&gt;supremum 记录代表最大用户记录，为链表终点" style="text;html=1;align=left;verticalAlign=middle;resizable=0;points=[];autosize=1;strokeColor=default;fillColor=none;fontColor=default;dashed=1;" vertex="1" parent="1">
                    <mxGeometry x="500" y="430" width="320" height="40" as="geometry"/>
                </mxCell>
                <mxCell id="89" value="删除的会加入 free 链表" style="shape=callout;whiteSpace=wrap;html=1;perimeter=calloutPerimeter;dashed=1;strokeColor=default;fontColor=default;position2=0.5;direction=south;size=20;position=0;base=10;" vertex="1" parent="1">
                    <mxGeometry x="555" y="626" width="155" height="30" as="geometry"/>
                </mxCell>
                <mxCell id="98" style="edgeStyle=none;html=1;entryX=1;entryY=0;entryDx=0;entryDy=0;fontColor=default;exitX=1;exitY=0.5;exitDx=0;exitDy=0;" edge="1" parent="1" source="90" target="22">
                    <mxGeometry relative="1" as="geometry">
                        <Array as="points">
                            <mxPoint x="135" y="490"/>
                            <mxPoint x="395" y="490"/>
                        </Array>
                    </mxGeometry>
                </mxCell>
                <mxCell id="90" value="槽 0" style="rounded=0;whiteSpace=wrap;html=1;strokeColor=default;fontColor=default;" vertex="1" parent="1">
                    <mxGeometry x="90" y="504" width="30" height="30" as="geometry"/>
                </mxCell>
                <mxCell id="97" style="edgeStyle=none;html=1;fontColor=default;" edge="1" parent="1" source="91">
                    <mxGeometry relative="1" as="geometry">
                        <mxPoint x="365" y="600" as="targetPoint"/>
                        <Array as="points">
                            <mxPoint x="135" y="570"/>
                            <mxPoint x="365" y="570"/>
                        </Array>
                    </mxGeometry>
                </mxCell>
                <mxCell id="91" value="槽 1&lt;span style=&quot;color: rgba(0, 0, 0, 0); font-family: monospace; font-size: 0px; text-align: start;&quot;&gt;%3CmxGraphModel%3E%3Croot%3E%3CmxCell%20id%3D%220%22%2F%3E%3CmxCell%20id%3D%221%22%20parent%3D%220%22%2F%3E%3CmxCell%20id%3D%222%22%20value%3D%22%E6%A7%BD%200%22%20style%3D%22rounded%3D0%3BwhiteSpace%3Dwrap%3Bhtml%3D1%3BstrokeColor%3Ddefault%3BfontColor%3Ddefault%3B%22%20vertex%3D%221%22%20parent%3D%221%22%3E%3CmxGeometry%20x%3D%2250%22%20y%3D%2260%22%20width%3D%2240%22%20height%3D%2230%22%20as%3D%22geometry%22%2F%3E%3C%2FmxCell%3E%3C%2Froot%3E%3C%2FmxGraphModel%3E&lt;/span&gt;" style="rounded=0;whiteSpace=wrap;html=1;strokeColor=default;fontColor=default;" vertex="1" parent="1">
                    <mxGeometry x="90" y="574" width="30" height="30" as="geometry"/>
                </mxCell>
                <mxCell id="92" value="槽 k" style="rounded=0;whiteSpace=wrap;html=1;strokeColor=default;fontColor=default;" vertex="1" parent="1">
                    <mxGeometry x="90" y="645" width="30" height="30" as="geometry"/>
                </mxCell>
                <mxCell id="95" value="分组" style="text;html=1;align=center;verticalAlign=middle;resizable=0;points=[];autosize=1;strokeColor=none;fillColor=none;fontColor=default;" vertex="1" parent="1">
                    <mxGeometry x="155" y="576" width="50" height="30" as="geometry"/>
                </mxCell>
                <mxCell id="102" value="Page Directory，页目录。&lt;br&gt;槽，用于快速找到分组的位置" style="shape=callout;whiteSpace=wrap;html=1;perimeter=calloutPerimeter;dashed=1;strokeColor=default;fontColor=default;direction=east;size=20;position=0.5;position2=0.33;align=left;" vertex="1" parent="1">
                    <mxGeometry x="42.5" y="420" width="165" height="60" as="geometry"/>
                </mxCell>
                <mxCell id="123" style="edgeStyle=none;html=1;entryX=0;entryY=0.25;entryDx=0;entryDy=0;fontSize=12;fontColor=default;exitX=1;exitY=0.25;exitDx=0;exitDy=0;" edge="1" parent="1" source="103" target="122">
                    <mxGeometry relative="1" as="geometry"/>
                </mxCell>
                <mxCell id="103" value="File Header" style="rounded=0;whiteSpace=wrap;html=1;strokeColor=default;fontColor=default;" vertex="1" parent="1">
                    <mxGeometry x="55" y="90" width="130" height="30" as="geometry"/>
                </mxCell>
                <mxCell id="105" value="Page Header" style="rounded=0;whiteSpace=wrap;html=1;strokeColor=default;fontColor=default;" vertex="1" parent="1">
                    <mxGeometry x="55" y="120" width="130" height="30" as="geometry"/>
                </mxCell>
                <mxCell id="106" value="User Records" style="rounded=0;whiteSpace=wrap;html=1;strokeColor=default;fontColor=default;" vertex="1" parent="1">
                    <mxGeometry x="55" y="150" width="130" height="70" as="geometry"/>
                </mxCell>
                <mxCell id="107" value="infimum + supremum" style="whiteSpace=wrap;html=1;strokeColor=default;fontColor=default;" vertex="1" parent="1">
                    <mxGeometry x="61" y="151" width="120" height="20" as="geometry"/>
                </mxCell>
                <mxCell id="108" value="Free Space" style="rounded=0;whiteSpace=wrap;html=1;strokeColor=default;fontColor=default;" vertex="1" parent="1">
                    <mxGeometry x="55" y="220" width="130" height="30" as="geometry"/>
                </mxCell>
                <mxCell id="110" value="Page Directory&lt;span style=&quot;color: rgba(0, 0, 0, 0); font-family: monospace; font-size: 0px; text-align: start;&quot;&gt;%3CmxGraphModel%3E%3Croot%3E%3CmxCell%20id%3D%220%22%2F%3E%3CmxCell%20id%3D%221%22%20parent%3D%220%22%2F%3E%3CmxCell%20id%3D%222%22%20value%3D%22Free%20Space%22%20style%3D%22rounded%3D0%3BwhiteSpace%3Dwrap%3Bhtml%3D1%3BstrokeColor%3Ddefault%3BfontColor%3Ddefault%3B%22%20vertex%3D%221%22%20parent%3D%221%22%3E%3CmxGeometry%20x%3D%22100%22%20y%3D%22630%22%20width%3D%22130%22%20height%3D%2230%22%20as%3D%22geometry%22%2F%3E%3C%2FmxCell%3E%3C%2Froot%3E%3C%2FmxGraphModel%3E&lt;/span&gt;&lt;span style=&quot;color: rgba(0, 0, 0, 0); font-family: monospace; font-size: 0px; text-align: start;&quot;&gt;%3CmxGraphModel%3E%3Croot%3E%3CmxCell%20id%3D%220%22%2F%3E%3CmxCell%20id%3D%221%22%20parent%3D%220%22%2F%3E%3CmxCell%20id%3D%222%22%20value%3D%22Free%20Space%22%20style%3D%22rounded%3D0%3BwhiteSpace%3Dwrap%3Bhtml%3D1%3BstrokeColor%3Ddefault%3BfontColor%3Ddefault%3B%22%20vertex%3D%221%22%20parent%3D%221%22%3E%3CmxGeometry%20x%3D%22100%22%20y%3D%22630%22%20width%3D%22130%22%20height%3D%2230%22%20as%3D%22geometry%22%2F%3E%3C%2FmxCell%3E%3C%2Froot%3E%3C%2FmxGraphModel%3E&lt;/span&gt;&lt;span style=&quot;color: rgba(0, 0, 0, 0); font-family: monospace; font-size: 0px; text-align: start;&quot;&gt;%3CmxGraphModel%3E%3Croot%3E%3CmxCell%20id%3D%220%22%2F%3E%3CmxCell%20id%3D%221%22%20parent%3D%220%22%2F%3E%3CmxCell%20id%3D%222%22%20value%3D%22Free%20Space%22%20style%3D%22rounded%3D0%3BwhiteSpace%3Dwrap%3Bhtml%3D1%3BstrokeColor%3Ddefault%3BfontColor%3Ddefault%3B%22%20vertex%3D%221%22%20parent%3D%221%22%3E%3CmxGeometry%20x%3D%22100%22%20y%3D%22630%22%20width%3D%22130%22%20height%3D%2230%22%20as%3D%22geometry%22%2F%3E%3C%2FmxCell%3E%3C%2Froot%3E%3C%2FmxGraphModel%3E&lt;/span&gt;&lt;span style=&quot;color: rgba(0, 0, 0, 0); font-family: monospace; font-size: 0px; text-align: start;&quot;&gt;%3CmxGraphModel%3E%3Croot%3E%3CmxCell%20id%3D%220%22%2F%3E%3CmxCell%20id%3D%221%22%20parent%3D%220%22%2F%3E%3CmxCell%20id%3D%222%22%20value%3D%22Free%20Space%22%20style%3D%22rounded%3D0%3BwhiteSpace%3Dwrap%3Bhtml%3D1%3BstrokeColor%3Ddefault%3BfontColor%3Ddefault%3B%22%20vertex%3D%221%22%20parent%3D%221%22%3E%3CmxGeometry%20x%3D%22100%22%20y%3D%22630%22%20width%3D%22130%22%20height%3D%2230%22%20as%3D%22geometry%22%2F%3E%3C%2FmxCell%3E%3C%2Froot%3E%3C%2FmxGraphModel%3E&lt;/span&gt;&lt;span style=&quot;color: rgba(0, 0, 0, 0); font-family: monospace; font-size: 0px; text-align: start;&quot;&gt;%3CmxGraphModel%3E%3Croot%3E%3CmxCell%20id%3D%220%22%2F%3E%3CmxCell%20id%3D%221%22%20parent%3D%220%22%2F%3E%3CmxCell%20id%3D%222%22%20value%3D%22Free%20Space%22%20style%3D%22rounded%3D0%3BwhiteSpace%3Dwrap%3Bhtml%3D1%3BstrokeColor%3Ddefault%3BfontColor%3Ddefault%3B%22%20vertex%3D%221%22%20parent%3D%221%22%3E%3CmxGeometry%20x%3D%22100%22%20y%3D%22630%22%20width%3D%22130%22%20height%3D%2230%22%20as%3D%22geometry%22%2F%3E%3C%2FmxCell%3E%3C%2Froot%3E%3C%2FmxGraphModel%3E&lt;/span&gt;&lt;span style=&quot;color: rgba(0, 0, 0, 0); font-family: monospace; font-size: 0px; text-align: start;&quot;&gt;%3CmxGraphModel%3E%3Croot%3E%3CmxCell%20id%3D%220%22%2F%3E%3CmxCell%20id%3D%221%22%20parent%3D%220%22%2F%3E%3CmxCell%20id%3D%222%22%20value%3D%22Free%20Space%22%20style%3D%22rounded%3D0%3BwhiteSpace%3Dwrap%3Bhtml%3D1%3BstrokeColor%3Ddefault%3BfontColor%3Ddefault%3B%22%20vertex%3D%221%22%20parent%3D%221%22%3E%3CmxGeometry%20x%3D%22100%22%20y%3D%22630%22%20width%3D%22130%22%20height%3D%2230%22%20as%3D%22geometry%22%2F%3E%3C%2FmxCell%3E%3C%2Froot%3E%3C%2FmxGraphModel%3E&lt;/span&gt;&lt;span style=&quot;color: rgba(0, 0, 0, 0); font-family: monospace; font-size: 0px; text-align: start;&quot;&gt;%3CmxGraphModel%3E%3Croot%3E%3CmxCell%20id%3D%220%22%2F%3E%3CmxCell%20id%3D%221%22%20parent%3D%220%22%2F%3E%3CmxCell%20id%3D%222%22%20value%3D%22Free%20Space%22%20style%3D%22rounded%3D0%3BwhiteSpace%3Dwrap%3Bhtml%3D1%3BstrokeColor%3Ddefault%3BfontColor%3Ddefault%3B%22%20vertex%3D%221%22%20parent%3D%221%22%3E%3CmxGeometry%20x%3D%22100%22%20y%3D%22630%22%20width%3D%22130%22%20height%3D%2230%22%20as%3D%22geometry%22%2F%3E%3C%2FmxCell%3E%3C%2Froot%3E%3C%2FmxGraphModel%3E&lt;/span&gt;" style="rounded=0;whiteSpace=wrap;html=1;strokeColor=default;fontColor=default;" vertex="1" parent="1">
                    <mxGeometry x="55" y="250" width="130" height="30" as="geometry"/>
                </mxCell>
                <mxCell id="111" value="File Trailer" style="rounded=0;whiteSpace=wrap;html=1;strokeColor=default;fontColor=default;" vertex="1" parent="1">
                    <mxGeometry x="55" y="280" width="130" height="30" as="geometry"/>
                </mxCell>
                <mxCell id="112" value="存储当前页的信息及上下页指针，形成 B+ 树中的双向链表" style="text;html=1;align=left;verticalAlign=middle;resizable=0;points=[];autosize=1;strokeColor=none;fillColor=none;fontColor=default;" vertex="1" parent="1">
                    <mxGeometry x="215" y="91" width="330" height="30" as="geometry"/>
                </mxCell>
                <mxCell id="113" value="&lt;div style=&quot;background-color: rgb(26, 26, 26); font-family: Consolas, &amp;quot;Courier New&amp;quot;, monospace; font-size: 12px; line-height: 19px;&quot;&gt;页内专有信息：槽数量、最后插入位置、当前页位于 B+ 树的层级等&lt;/div&gt;" style="text;html=1;align=left;verticalAlign=middle;resizable=0;points=[];autosize=1;strokeColor=none;fillColor=none;fontColor=default;fontSize=12;" vertex="1" parent="1">
                    <mxGeometry x="195" y="121" width="390" height="30" as="geometry"/>
                </mxCell>
                <mxCell id="114" value="记录，两个特殊的记录 infimum、supremum 和用户记录。&lt;br&gt;叶子节点时普通记录，非叶子节点时是目录项记录。" style="text;html=1;align=left;verticalAlign=middle;resizable=0;points=[];autosize=1;strokeColor=none;fillColor=none;fontSize=12;fontColor=default;" vertex="1" parent="1">
                    <mxGeometry x="195" y="165" width="330" height="40" as="geometry"/>
                </mxCell>
                <mxCell id="115" value="未使用的空间" style="text;html=1;align=left;verticalAlign=middle;resizable=0;points=[];autosize=1;strokeColor=none;fillColor=none;fontSize=12;fontColor=default;" vertex="1" parent="1">
                    <mxGeometry x="195" y="220" width="100" height="30" as="geometry"/>
                </mxCell>
                <mxCell id="116" value="页目录，将页内多条记录划分为组，这里记录组开头的槽位置" style="text;html=1;align=left;verticalAlign=middle;resizable=0;points=[];autosize=1;strokeColor=none;fillColor=none;fontSize=12;fontColor=default;" vertex="1" parent="1">
                    <mxGeometry x="195" y="250" width="350" height="30" as="geometry"/>
                </mxCell>
                <mxCell id="117" value="与 File Header 有相同的校验和，用于刷盘后校验完整性" style="text;html=1;align=left;verticalAlign=middle;resizable=0;points=[];autosize=1;strokeColor=none;fillColor=none;fontSize=12;fontColor=default;" vertex="1" parent="1">
                    <mxGeometry x="195" y="280" width="320" height="30" as="geometry"/>
                </mxCell>
                <mxCell id="119" value="Page&amp;nbsp;" style="text;html=1;align=center;verticalAlign=middle;resizable=0;points=[];autosize=1;strokeColor=none;fillColor=none;fontSize=12;fontColor=default;" vertex="1" parent="1">
                    <mxGeometry x="33.5" y="50" width="50" height="30" as="geometry"/>
                </mxCell>
                <mxCell id="120" value="Page Direcotry 和 User Records 的展开：" style="text;html=1;align=center;verticalAlign=middle;resizable=0;points=[];autosize=1;strokeColor=none;fillColor=none;fontSize=12;fontColor=default;" vertex="1" parent="1">
                    <mxGeometry y="370" width="250" height="30" as="geometry"/>
                </mxCell>
                <mxCell id="127" style="edgeStyle=none;html=1;entryX=1;entryY=0.75;entryDx=0;entryDy=0;fontSize=12;fontColor=default;exitX=0;exitY=0.75;exitDx=0;exitDy=0;" edge="1" parent="1" source="125" target="122">
                    <mxGeometry relative="1" as="geometry">
                        <mxPoint x="420" y="60" as="sourcePoint"/>
                    </mxGeometry>
                </mxCell>
                <mxCell id="125" value="Page 3" style="rounded=1;whiteSpace=wrap;html=1;strokeColor=default;fontSize=12;fontColor=default;" vertex="1" parent="1">
                    <mxGeometry x="365" y="40" width="70" height="40" as="geometry"/>
                </mxCell>
            </root>
        </mxGraphModel>
    </diagram>
</mxfile>
